<svg width="50" height="50" viewBox="0 0 50 50" fill="none" xmlns="http://www.w3.org/2000/svg">
<path d="M24.93 49.76C28.3579 49.76 31.1625 47.4634 31.1625 44.6564H18.6975C18.6975 47.4634 21.5021 49.76 24.93 49.76ZM43.6275 34.4492V21.6903C43.6275 13.8562 38.548 7.29813 29.6044 5.56291V3.82769C29.6044 1.7097 27.5165 0 24.93 0C22.3435 0 20.2556 1.7097 20.2556 3.82769V5.56291C11.3432 7.29813 6.2325 13.8307 6.2325 21.6903V34.4492L0 39.5528V42.1046H49.86V39.5528L43.6275 34.4492ZM37.395 37.001H12.465V21.6903C12.465 15.3618 17.1705 10.2072 24.93 10.2072C32.6895 10.2072 37.395 15.3618 37.395 21.6903V37.001Z" fill="#C7C7DB"/>
</svg>
