<svg width="30" height="30" viewBox="0 0 30 30" fill="none" xmlns="http://www.w3.org/2000/svg">
<path id="Vector" d="M14.9997 0.333252C16.9446 0.333252 18.8099 1.10587 20.1851 2.48114C21.5604 3.8564 22.333 5.72166 22.333 7.66659C22.333 9.61151 21.5604 11.4768 20.1851 12.852C18.8099 14.2273 16.9446 14.9999 14.9997 14.9999C13.0548 14.9999 11.1895 14.2273 9.81422 12.852C8.43896 11.4768 7.66634 9.61151 7.66634 7.66659C7.66634 5.72166 8.43896 3.8564 9.81422 2.48114C11.1895 1.10587 13.0548 0.333252 14.9997 0.333252ZM14.9997 3.99992C14.0272 3.99992 13.0946 4.38623 12.407 5.07386C11.7193 5.76149 11.333 6.69412 11.333 7.66659C11.333 8.63905 11.7193 9.57168 12.407 10.2593C13.0946 10.9469 14.0272 11.3333 14.9997 11.3333C15.9721 11.3333 16.9048 10.9469 17.5924 10.2593C18.28 9.57168 18.6663 8.63905 18.6663 7.66659C18.6663 6.69412 18.28 5.76149 17.5924 5.07386C16.9048 4.38623 15.9721 3.99992 14.9997 3.99992ZM14.9997 16.8333C19.8947 16.8333 29.6663 19.2716 29.6663 24.1666V29.6666L0.333008 29.6666L0.333008 24.1666C0.333008 19.2716 10.1047 16.8333 14.9997 16.8333ZM14.9997 20.3166C9.55468 20.3166 3.81634 22.9933 3.81634 24.1666V26.1833L26.183 26.1833V24.1666C26.183 22.9933 20.4447 20.3166 14.9997 20.3166Z" fill="#575038"/>
</svg>
