<svg width="47" height="46" viewBox="0 0 47 46" fill="none" xmlns="http://www.w3.org/2000/svg">
<g clip-path="url(#clip0_77_222)">
<path d="M30.3542 26.8333H28.8071L28.2587 26.3158C30.1779 24.1308 31.3333 21.2942 31.3333 18.2083C31.3333 11.3275 25.6346 5.75 18.6042 5.75C11.5737 5.75 5.875 11.3275 5.875 18.2083C5.875 25.0892 11.5737 30.6667 18.6042 30.6667C21.7571 30.6667 24.6554 29.5358 26.8879 27.6575L27.4167 28.1942L27.4167 29.7083L37.2083 39.2725L40.1262 36.4167L30.3542 26.8333ZM18.6042 26.8333C13.7279 26.8333 9.79167 22.9808 9.79167 18.2083C9.79167 13.4358 13.7279 9.58333 18.6042 9.58333C23.4804 9.58333 27.4167 13.4358 27.4167 18.2083C27.4167 22.9808 23.4804 26.8333 18.6042 26.8333Z" fill="black"/>
</g>
<defs>
<clipPath id="clip0_77_222">
<rect width="47" height="46" fill="white"/>
</clipPath>
</defs>
</svg>
