<svg width="30" height="30" viewBox="0 0 30 30" fill="none" xmlns="http://www.w3.org/2000/svg">
<g id="eye-off-outline">
<path id="Vector" d="M25.3127 26.25C25.1896 26.2502 25.0676 26.226 24.9539 26.1789C24.8401 26.1317 24.7369 26.0625 24.65 25.9752L4.025 5.35019C3.8566 5.17295 3.76411 4.93693 3.76724 4.69247C3.77037 4.448 3.86888 4.21443 4.04175 4.04155C4.21463 3.86868 4.4482 3.77017 4.69266 3.76704C4.93713 3.76391 5.17314 3.85641 5.35039 4.0248L25.9754 24.6498C26.1064 24.7809 26.1956 24.9479 26.2318 25.1297C26.2679 25.3115 26.2493 25.5 26.1784 25.6712C26.1075 25.8425 25.9874 25.9888 25.8333 26.0919C25.6792 26.1949 25.498 26.2499 25.3127 26.25ZM14.9803 22.5C12.5492 22.5 10.2049 21.7805 8.0123 20.3613C6.01601 19.0723 4.21894 17.226 2.81504 15.0293V15.0246C3.9834 13.3506 5.26308 11.935 6.63769 10.7936C6.65013 10.7832 6.66027 10.7703 6.66748 10.7558C6.67469 10.7413 6.67881 10.7254 6.67958 10.7092C6.68035 10.693 6.67776 10.6769 6.67196 10.6617C6.66616 10.6466 6.65729 10.6328 6.6459 10.6213L5.47871 9.45586C5.45797 9.43494 5.43011 9.42261 5.40069 9.4213C5.37126 9.42 5.34243 9.42983 5.31992 9.44882C3.85976 10.6793 2.50449 12.1887 1.27226 13.9559C1.06026 14.2601 0.943504 14.6206 0.936827 14.9914C0.93015 15.3622 1.03385 15.7266 1.23476 16.0383C2.78222 18.46 4.77382 20.4996 6.99336 21.9357C9.49238 23.5547 12.1818 24.375 14.9803 24.375C16.4908 24.3703 17.9906 24.1214 19.4217 23.6379C19.4406 23.6315 19.4575 23.6204 19.4709 23.6056C19.4843 23.5908 19.4937 23.5729 19.4982 23.5535C19.5027 23.534 19.5022 23.5138 19.4967 23.4946C19.4912 23.4755 19.4809 23.458 19.4668 23.4439L18.2023 22.1795C18.1732 22.1511 18.1372 22.1308 18.0979 22.1205C18.0585 22.1102 18.0172 22.1104 17.9779 22.1209C16.9987 22.3731 15.9915 22.5004 14.9803 22.5ZM28.7603 13.9805C27.21 11.5828 25.1984 9.54609 22.9437 8.09003C20.4494 6.47754 17.6955 5.625 14.9803 5.625C13.4858 5.62765 12.0024 5.88178 10.5922 6.37675C10.5734 6.38329 10.5566 6.39451 10.5433 6.40934C10.5301 6.42417 10.5208 6.44213 10.5164 6.46153C10.512 6.48094 10.5126 6.50114 10.5182 6.52024C10.5238 6.53933 10.5341 6.5567 10.5482 6.5707L11.8109 7.83339C11.8403 7.86229 11.8768 7.88292 11.9167 7.89321C11.9567 7.9035 11.9986 7.90308 12.0383 7.89199C12.9974 7.63252 13.9866 7.50072 14.9803 7.5C17.3645 7.5 19.7018 8.22832 21.9266 9.66796C23.9603 10.9805 25.7785 12.825 27.1859 15C27.187 15.0013 27.1875 15.003 27.1875 15.0047C27.1875 15.0064 27.187 15.008 27.1859 15.0094C26.1643 16.6177 24.8965 18.0557 23.4289 19.2709C23.4163 19.2813 23.4061 19.2941 23.3987 19.3087C23.3914 19.3232 23.3872 19.3391 23.3864 19.3554C23.3856 19.3716 23.3881 19.3879 23.3939 19.4031C23.3997 19.4183 23.4087 19.4322 23.4201 19.4437L24.5861 20.6092C24.6068 20.63 24.6345 20.6423 24.6637 20.6438C24.693 20.6452 24.7218 20.6355 24.7443 20.6168C26.3111 19.2976 27.6674 17.7469 28.7662 16.0184C28.9604 15.7138 29.0631 15.3598 29.0621 14.9986C29.0611 14.6373 28.9563 14.2839 28.7603 13.9805Z" fill="#575038"/>
<path id="Vector_2" d="M15.0002 9.375C14.5789 9.37477 14.1589 9.42194 13.7481 9.51563C13.7273 9.51993 13.7081 9.52979 13.6925 9.54414C13.6769 9.55849 13.6655 9.5768 13.6595 9.59712C13.6535 9.61744 13.6531 9.63901 13.6584 9.65953C13.6637 9.68006 13.6744 9.69877 13.6895 9.71367L20.2865 16.309C20.3014 16.324 20.3202 16.3348 20.3407 16.3401C20.3612 16.3453 20.3828 16.345 20.4031 16.3389C20.4234 16.3329 20.4417 16.3215 20.4561 16.3059C20.4704 16.2903 20.4803 16.2711 20.4846 16.2504C20.6724 15.4266 20.6722 14.5711 20.4841 13.7473C20.2959 12.9236 19.9246 12.1528 19.3977 11.4923C18.8708 10.8318 18.2018 10.2984 17.4405 9.93187C16.6792 9.56532 15.8452 9.37498 15.0002 9.375ZM9.71388 13.691C9.69898 13.676 9.68027 13.6652 9.65974 13.6599C9.63922 13.6547 9.61765 13.6551 9.59733 13.6611C9.57701 13.6671 9.5587 13.6785 9.54435 13.6941C9.53 13.7097 9.52014 13.7289 9.51583 13.7496C9.30334 14.6779 9.33002 15.645 9.59338 16.5602C9.85674 17.4754 10.3481 18.3088 11.0215 18.9822C11.695 19.6556 12.5283 20.147 13.4435 20.4103C14.3587 20.6737 15.3258 20.7004 16.2541 20.4879C16.2749 20.4836 16.2941 20.4737 16.3096 20.4594C16.3252 20.445 16.3367 20.4267 16.3427 20.4064C16.3487 20.3861 16.3491 20.3645 16.3438 20.344C16.3385 20.3235 16.3278 20.3047 16.3127 20.2898L9.71388 13.691Z" fill="#575038"/>
</g>
</svg>
